<svg version="1.1" id="Layer_1" xmlns="http://www.w3.org/2000/svg" xmlns:xlink="http://www.w3.org/1999/xlink" x="0px" y="0px"
	 width="100%" viewBox="0 0 624 624" enable-background="new 0 0 624 624" xml:space="preserve">
<path fill="#000000" opacity="1.000000" stroke="none" 
	d="
M435.927032,135.905914 
	C450.259644,139.915527 464.177277,143.905228 478.163177,147.639252 
	C481.617981,148.561615 483.447510,150.231339 484.343384,153.754059 
	C494.260376,192.750397 504.269409,231.723526 514.386658,270.668335 
	C515.194763,273.778809 514.207581,275.639740 512.147034,277.673248 
	C500.406372,289.259613 488.766754,300.948273 477.043701,312.552551 
	C475.633270,313.948669 473.926392,315.045349 472.992615,315.780365 
	C473.171448,319.157379 474.984222,320.074799 476.194672,321.329559 
	C487.761505,333.320007 499.324829,345.315338 511.042175,357.157898 
	C513.533081,359.675476 514.399475,361.921143 513.402161,365.515076 
	C502.638184,404.303589 492.000092,443.127380 481.498444,481.987701 
	C480.575806,485.401886 478.470337,486.354279 475.609985,487.101440 
	C437.301392,497.108521 398.990448,507.107269 360.718292,517.252136 
	C357.324097,518.151794 355.154419,517.357910 352.832977,514.933228 
	C341.887634,503.500946 330.784149,492.220215 319.785950,480.838196 
	C318.056000,479.047882 316.577057,477.015015 315.341003,475.526581 
	C311.721405,476.065002 310.444183,478.202087 308.847351,479.778381 
	C297.345673,491.131958 285.838318,502.481964 274.508392,514.005737 
	C271.838898,516.720947 269.401123,517.385681 265.688934,516.334534 
	C228.075012,505.683563 190.429916,495.140533 152.734344,484.782776 
	C148.448517,483.605164 146.563004,481.501373 145.493195,477.263702 
	C135.884521,439.202698 126.102478,401.185059 116.216782,363.194916 
	C115.182205,359.219116 115.646973,356.477905 118.742592,353.493652 
	C130.255096,342.395386 141.484589,331.003113 152.788742,319.689667 
	C154.296127,318.181061 156.103149,316.895691 156.977859,314.843048 
	C156.558014,312.830719 154.904068,311.815948 153.665466,310.534882 
	C141.968567,298.436981 130.242249,286.367493 118.495667,274.317780 
	C116.679306,272.454559 115.497154,270.796509 116.338379,267.771301 
	C127.122337,228.989700 137.805679,190.179672 148.313278,151.322418 
	C149.334641,147.545395 151.180145,145.925842 154.812653,144.983307 
	C192.974548,135.081100 231.105362,125.058548 269.219360,114.973236 
	C272.469910,114.113106 274.727051,114.571823 277.151184,117.117126 
	C288.525665,129.060318 300.104065,140.809433 311.629120,152.608887 
	C312.997681,154.010040 314.485107,155.295120 315.745514,156.473312 
	C318.277435,155.753006 319.441193,154.033417 320.839111,152.658279 
	C332.359802,141.324982 343.993835,130.100372 355.254944,118.513794 
	C358.447540,115.228935 361.271515,114.922997 365.367584,116.097237 
	C388.720245,122.791847 412.140198,129.251892 435.927032,135.905914 
M343.233521,313.609772 
	C340.532013,315.762390 341.915436,317.520691 343.704865,319.357483 
	C355.091339,331.045319 366.518066,342.695465 377.766602,354.514954 
	C380.364410,357.244598 381.888611,355.985748 383.853790,354.022614 
	C395.281067,342.607361 406.692749,331.174957 418.260040,319.902649 
	C420.701935,317.523010 420.376862,316.034973 418.180603,313.810364 
	C406.716553,302.198212 395.377350,290.462891 383.974487,278.790100 
	C383.076538,277.870850 382.319305,276.631012 379.626007,276.807159 
	C368.045959,288.518860 355.880402,300.822693 343.233521,313.609772 
M261.328888,343.828857 
	C269.459412,335.720184 277.505890,327.524384 285.768677,319.552826 
	C288.453583,316.962555 288.952484,315.201630 286.051208,312.296448 
	C274.998474,301.228882 264.092804,290.009918 253.335648,278.654724 
	C250.484222,275.644806 248.439880,275.635376 245.615250,278.484009 
	C234.601791,289.591248 223.504257,300.615906 212.359207,311.591248 
	C209.671921,314.237640 209.660004,316.177460 212.453445,318.962738 
	C223.412201,329.889435 234.114304,341.073212 244.958893,352.115173 
	C246.191284,353.369995 247.181458,355.080872 250.670059,355.448151 
	C253.662949,352.167755 257.242279,348.244568 261.328888,343.828857 
M301.592468,223.092987 
	C292.797485,231.625854 284.002472,240.158722 274.980103,248.912186 
	C288.212677,262.512573 300.625549,275.231506 312.982117,288.004852 
	C315.325226,290.427002 316.730896,288.689026 318.295044,287.130707 
	C329.960480,275.508942 341.633942,263.895172 353.282745,252.256744 
	C354.069489,251.470703 355.140076,250.771255 354.908203,248.945160 
	C342.213959,235.888336 329.278717,222.583679 315.262665,208.167297 
	C310.573029,213.309570 306.336487,217.955032 301.592468,223.092987 
M298.572144,358.072144 
	C291.623169,365.001434 284.745026,372.004028 277.688232,378.821716 
	C275.089142,381.332703 274.986206,383.181976 277.604218,385.817932 
	C287.331787,395.612061 296.847687,405.615967 306.508545,415.476959 
	C308.914734,417.933014 311.053986,420.732178 313.948914,422.441589 
	C327.295166,408.902374 340.427032,395.580688 353.866852,381.946594 
	C341.742096,369.477844 329.241882,356.627563 316.748596,343.770569 
	C314.816772,341.782532 313.497345,343.258118 312.175262,344.564056 
	C307.796814,348.889191 303.437347,353.233521 298.572144,358.072144 
M377.940430,220.522064 
	C380.360931,223.773163 382.462067,223.800568 385.471954,220.745605 
	C399.830292,206.172058 414.421173,191.827759 428.899292,177.371841 
	C430.035583,176.237335 431.574707,175.339447 431.895721,173.029083 
	C430.472656,172.480179 429.001984,171.771957 427.454468,171.337555 
	C409.384583,166.264938 391.281219,161.309509 373.248444,156.108978 
	C370.555420,155.332321 368.905029,155.918213 367.100311,157.744507 
	C359.968323,164.961685 352.885956,172.237411 345.507294,179.196823 
	C342.379974,182.146439 342.145844,184.110199 345.304321,187.247971 
	C356.159332,198.031845 366.755310,209.076462 377.940430,220.522064 
M219.687805,465.684570 
	C231.859741,469.055939 244.067474,472.306091 256.178680,475.883118 
	C259.236267,476.786224 261.136414,476.071106 263.215942,473.949951 
	C270.321838,466.701843 277.453430,459.470917 284.811432,452.482086 
	C287.688080,449.749786 287.550659,447.966125 284.829895,445.222168 
	C274.051849,434.351776 263.321625,423.423767 252.917953,412.198029 
	C249.368561,408.368225 247.126160,408.746918 243.730804,412.193024 
	C229.715942,426.417389 215.482346,440.426086 201.373291,454.558136 
	C200.160400,455.773010 198.466583,456.808472 198.493103,459.177338 
	C205.012833,462.215485 212.184753,463.152893 219.687805,465.684570 
M376.970856,475.319611 
	C394.402222,470.698944 411.833618,466.078308 430.876129,461.030548 
	C413.283478,442.934479 396.827179,426.007263 379.939362,408.636169 
	C366.835205,421.823883 354.432465,434.348785 341.966339,446.810333 
	C339.803436,448.972412 340.724823,450.524261 342.436249,452.268280 
	C348.498077,458.445587 354.853088,464.380676 360.437012,470.967102 
	C364.930328,476.267059 369.538727,478.795624 376.970856,475.319611 
M204.694794,176.851151 
	C218.661026,191.158646 232.681122,205.414322 246.544800,219.820511 
	C249.099579,222.475266 250.780258,222.604309 253.416031,219.923172 
	C264.511932,208.636169 275.724548,197.461090 287.051758,186.406219 
	C289.880035,183.645935 289.768066,181.702957 287.042358,179.013031 
	C279.808929,171.874542 272.699921,164.604935 265.710907,157.226913 
	C263.596619,154.994934 261.578949,154.488449 258.652161,155.277283 
	C240.982681,160.039520 223.270065,164.641602 205.579330,169.325363 
	C203.860855,169.780350 201.957855,170.035095 200.994339,172.077072 
	C201.476303,173.924973 202.991959,175.035797 204.694794,176.851151 
M417.232056,371.732208 
	C414.404938,374.552429 411.661835,377.464233 408.722626,380.162323 
	C406.590729,382.119354 406.264496,383.669128 408.469086,385.913452 
	C423.625061,401.342346 438.682281,416.868225 453.792969,432.341736 
	C454.460052,433.024841 455.100769,433.908264 456.583832,433.797119 
	C456.887054,433.253571 457.426880,432.609711 457.631012,431.872864 
	C462.952576,412.664154 468.239716,393.445953 473.531250,374.228943 
	C474.189789,371.837311 473.130005,370.108215 471.499329,368.462463 
	C464.238617,361.134766 456.940155,353.840179 449.856720,346.343384 
	C447.281067,343.617401 445.542694,343.770386 442.979065,346.366119 
	C434.679565,354.769562 426.167267,362.962860 417.232056,371.732208 
M474.617065,261.386993 
	C469.423645,241.070786 464.230225,220.754593 458.777618,199.424438 
	C441.330414,217.456284 425.057800,234.274185 408.785156,251.092087 
	C407.952515,250.737259 408.182709,251.384735 408.617493,251.834412 
	C420.546570,264.171875 432.535950,276.451416 444.410706,288.840820 
	C446.874725,291.411652 448.382965,289.925110 450.142212,288.163727 
	C457.442505,280.854401 464.773041,273.575317 472.076965,266.269623 
	C473.242981,265.103271 474.594727,264.021698 474.617065,261.386993 
M222.914734,248.096252 
	C207.218292,230.758621 190.584290,214.346741 174.324921,197.828232 
	C172.700027,198.771759 172.485016,199.756821 172.220840,200.716354 
	C167.019318,219.609070 161.847443,238.510056 156.581512,257.384796 
	C155.781769,260.251282 156.964447,262.105865 158.842621,263.986725 
	C166.011154,271.165405 173.217072,278.312408 180.183762,285.684113 
	C182.789276,288.441101 184.492065,288.230438 187.043411,285.641266 
	C195.913589,276.639557 205.107056,267.954865 213.917450,258.896576 
	C217.102539,255.621811 221.321716,253.207428 222.914734,248.096252 
M204.036194,400.538513 
	C210.283005,394.407196 216.529800,388.275879 223.088852,381.838104 
	C210.183273,368.552704 197.770126,355.816986 185.419174,343.021210 
	C183.141464,340.661469 181.710632,342.126129 180.081528,343.755035 
	C172.668945,351.166901 165.272278,358.595795 157.767838,365.913940 
	C155.608047,368.020081 155.134064,370.074280 155.916290,373.046295 
	C160.566574,390.714905 164.965042,408.449707 169.568924,426.130798 
	C170.077850,428.085266 170.040665,430.474152 172.857224,432.259247 
	C183.046234,421.895386 193.292892,411.472870 204.036194,400.538513 
z"/>
</svg>